<svg width="180" height="66" viewBox="0 0 180 66" fill="none" xmlns="http://www.w3.org/2000/svg">
<g filter="url(#filter0_i_0_1)">
<rect x="0.5" y="0.5" width="179" height="65" stroke="black"/>
</g>
<g filter="url(#filter1_d_0_1)">
<path d="M34.9117 42.76L35.7517 42.56C36.7384 42.2667 37.4451 41.92 37.8717 41.52C38.2984 41.0933 38.6984 40.32 39.0717 39.2L44.7517 22.8C45.0184 21.9467 45.1517 21.36 45.1517 21.04C45.1517 20.5867 45.0184 20.24 44.7517 20C44.5117 19.7333 44.1117 19.5467 43.5517 19.44L42.7117 19.24L43.1517 18H50.1117L57.4317 38.96C57.8317 40.1067 58.2451 40.96 58.6717 41.52C59.1251 42.08 59.8051 42.7067 60.7117 43.4L60.2317 44H52.0317L51.6317 42.76L52.5117 42.56C53.0717 42.4267 53.4717 42.24 53.7117 42C53.9784 41.7333 54.1117 41.3733 54.1117 40.92C54.1117 40.6533 54.0451 40.3467 53.9117 40C53.8051 39.6267 53.7251 39.36 53.6717 39.2L51.9517 34.12H43.5917L42.7117 36.76C42.1784 38.4133 41.9117 39.68 41.9117 40.56C41.9117 41.44 42.0851 42.1733 42.4317 42.76L42.7117 43.4L42.0317 44H35.3917L34.9117 42.76ZM44.3917 31.84H51.2317L47.7517 21.68L44.3917 31.84ZM66.5786 22.52C66.1786 22.52 65.7119 22.24 65.1786 21.68C64.6453 21.12 64.3786 20.6133 64.3786 20.16C64.3786 19.7067 64.6319 19.2 65.1386 18.64C65.6719 18.08 66.1519 17.8 66.5786 17.8C67.0319 17.8 67.5253 18.08 68.0586 18.64C68.5919 19.2 68.8586 19.7067 68.8586 20.16C68.8586 20.6133 68.5919 21.12 68.0586 21.68C67.5253 22.24 67.0319 22.52 66.5786 22.52ZM67.7786 44.52C66.7919 44.52 66.0719 44.2267 65.6186 43.64C65.1919 43.0267 64.9786 42.04 64.9786 40.68V29.48C64.9786 29.16 64.9253 28.9333 64.8186 28.8C64.7119 28.6667 64.5253 28.6 64.2586 28.6H62.6186L62.3386 27.72C63.0319 27.08 63.8186 26.56 64.6986 26.16C65.6053 25.76 66.3919 25.56 67.0586 25.56C67.4053 25.56 67.6853 25.6667 67.8986 25.88C68.1386 26.0667 68.2586 26.32 68.2586 26.64V40.8C68.2586 41.6267 68.6186 42.04 69.3386 42.04C69.8986 42.04 70.5119 41.7867 71.1786 41.28L71.8586 42.2C71.1919 42.8933 70.4853 43.4533 69.7386 43.88C69.0186 44.3067 68.3653 44.52 67.7786 44.52ZM73.9477 42.76L74.8277 42.56C75.7343 42.2667 76.3343 41.9067 76.6277 41.48C76.9477 41.0533 77.1077 40.2933 77.1077 39.2V21.28C77.1077 20.96 77.041 20.7467 76.9077 20.64C76.801 20.5067 76.6143 20.44 76.3477 20.44H74.2277L73.7877 19.08C74.8277 18.68 76.201 18.32 77.9077 18C79.6143 17.6533 81.241 17.48 82.7877 17.48C86.121 17.48 88.5877 18.1467 90.1877 19.48C91.7877 20.7867 92.5877 22.4933 92.5877 24.6C92.5877 25.96 92.2677 27.2 91.6277 28.32C91.0143 29.4133 90.0677 30.2533 88.7877 30.84C90.3877 31.3733 91.641 32.1867 92.5477 33.28C93.4543 34.3467 93.9077 35.5333 93.9077 36.84C93.9077 39.0533 93.161 40.8 91.6677 42.08C90.201 43.36 87.8277 44 84.5477 44H74.4277L73.9477 42.76ZM84.7477 42.12C86.4277 42.12 87.7477 41.6267 88.7077 40.64C89.6677 39.6267 90.1477 38.3067 90.1477 36.68C90.1477 35.2667 89.6277 34.08 88.5877 33.12C87.5743 32.1333 86.201 31.64 84.4677 31.64C83.5343 31.64 82.721 31.4933 82.0277 31.2C81.681 31.0133 81.5077 30.7333 81.5077 30.36C81.5077 29.96 81.6677 29.76 81.9877 29.76C82.121 29.76 82.3477 29.7867 82.6677 29.84C82.9877 29.8933 83.3743 29.92 83.8277 29.92C85.4543 29.92 86.721 29.4533 87.6277 28.52C88.561 27.56 89.0277 26.28 89.0277 24.68C89.0277 23.1333 88.5077 21.88 87.4677 20.92C86.4543 19.96 85.0277 19.48 83.1877 19.48C81.561 19.48 80.7477 20.0533 80.7477 21.2V37.36C80.7477 39.36 81.1343 40.6533 81.9077 41.24C82.7077 41.8267 83.6543 42.12 84.7477 42.12ZM105.862 44.52C104.182 44.52 102.716 44.1333 101.462 43.36C100.209 42.5867 99.2357 41.5067 98.5423 40.12C97.849 38.7067 97.5023 37.08 97.5023 35.24C97.5023 33.32 97.889 31.6267 98.6623 30.16C99.4357 28.6933 100.529 27.56 101.942 26.76C103.382 25.96 105.036 25.56 106.902 25.56C108.876 25.56 110.396 26.08 111.462 27.12C112.556 28.16 113.102 29.4133 113.102 30.88C113.102 31.8933 112.822 32.8667 112.262 33.8C111.729 34.7333 110.929 35.4933 109.862 36.08C108.822 36.6667 107.596 36.96 106.182 36.96C105.382 36.96 104.516 36.8267 103.582 36.56C102.649 36.2667 102.182 35.84 102.182 35.28C102.182 35.0667 102.236 34.88 102.342 34.72C102.449 34.56 102.569 34.48 102.702 34.48C102.782 34.48 103.022 34.56 103.422 34.72C103.849 34.8533 104.396 34.92 105.062 34.92C106.529 34.92 107.662 34.52 108.462 33.72C109.262 32.92 109.662 31.96 109.662 30.84C109.662 29.88 109.342 29.0533 108.702 28.36C108.089 27.6667 107.262 27.32 106.222 27.32C104.649 27.32 103.422 28.0133 102.542 29.4C101.689 30.76 101.262 32.7067 101.262 35.24C101.262 37.4 101.716 39.0933 102.622 40.32C103.556 41.52 104.889 42.12 106.622 42.12C108.756 42.12 110.516 41.4267 111.902 40.04C111.982 39.96 112.089 39.92 112.222 39.92C112.436 39.92 112.649 40.0267 112.862 40.24C113.102 40.4533 113.222 40.68 113.222 40.92C113.222 41 113.196 41.08 113.142 41.16C113.089 41.2133 113.062 41.2533 113.062 41.28C112.156 42.3467 111.076 43.16 109.822 43.72C108.596 44.2533 107.276 44.52 105.862 44.52ZM125.003 44.52C123.323 44.52 121.856 44.1333 120.603 43.36C119.35 42.5867 118.376 41.5067 117.683 40.12C116.99 38.7067 116.643 37.08 116.643 35.24C116.643 33.32 117.03 31.6267 117.803 30.16C118.576 28.6933 119.67 27.56 121.083 26.76C122.523 25.96 124.176 25.56 126.043 25.56C128.016 25.56 129.536 26.08 130.603 27.12C131.696 28.16 132.243 29.4133 132.243 30.88C132.243 31.8933 131.963 32.8667 131.403 33.8C130.87 34.7333 130.07 35.4933 129.003 36.08C127.963 36.6667 126.736 36.96 125.323 36.96C124.523 36.96 123.656 36.8267 122.723 36.56C121.79 36.2667 121.323 35.84 121.323 35.28C121.323 35.0667 121.376 34.88 121.483 34.72C121.59 34.56 121.71 34.48 121.843 34.48C121.923 34.48 122.163 34.56 122.563 34.72C122.99 34.8533 123.536 34.92 124.203 34.92C125.67 34.92 126.803 34.52 127.603 33.72C128.403 32.92 128.803 31.96 128.803 30.84C128.803 29.88 128.483 29.0533 127.843 28.36C127.23 27.6667 126.403 27.32 125.363 27.32C123.79 27.32 122.563 28.0133 121.683 29.4C120.83 30.76 120.403 32.7067 120.403 35.24C120.403 37.4 120.856 39.0933 121.763 40.32C122.696 41.52 124.03 42.12 125.763 42.12C127.896 42.12 129.656 41.4267 131.043 40.04C131.123 39.96 131.23 39.92 131.363 39.92C131.576 39.92 131.79 40.0267 132.003 40.24C132.243 40.4533 132.363 40.68 132.363 40.92C132.363 41 132.336 41.08 132.283 41.16C132.23 41.2133 132.203 41.2533 132.203 41.28C131.296 42.3467 130.216 43.16 128.963 43.72C127.736 44.2533 126.416 44.52 125.003 44.52ZM140.904 44.52C139.917 44.52 139.144 44.2133 138.584 43.6C138.024 42.96 137.744 42.0933 137.744 41V28.24H134.584C134.584 27.6 134.637 27.1867 134.744 27C134.85 26.7867 135.09 26.6267 135.464 26.52C136.744 26.2 137.65 25.6667 138.184 24.92C138.717 24.1733 139.117 23.1867 139.384 21.96C139.437 21.5867 139.557 21.36 139.744 21.28C139.957 21.1733 140.41 21.12 141.104 21.12V26H145.784C145.784 26.5067 145.704 26.96 145.544 27.36C145.41 27.76 145.224 28.0533 144.984 28.24H141.104V39.96C141.104 40.7067 141.197 41.24 141.384 41.56C141.597 41.8533 141.957 42 142.464 42C143.184 42 143.997 41.6133 144.904 40.84L145.584 41.8C144.97 42.6 144.224 43.2533 143.344 43.76C142.464 44.2667 141.65 44.52 140.904 44.52Z" fill="black"/>
</g>
<defs>
<filter id="filter0_i_0_1" x="0" y="0" width="180" height="70" filterUnits="userSpaceOnUse" color-interpolation-filters="sRGB">
<feFlood flood-opacity="0" result="BackgroundImageFix"/>
<feBlend mode="normal" in="SourceGraphic" in2="BackgroundImageFix" result="shape"/>
<feColorMatrix in="SourceAlpha" type="matrix" values="0 0 0 0 0 0 0 0 0 0 0 0 0 0 0 0 0 0 127 0" result="hardAlpha"/>
<feOffset dy="4"/>
<feGaussianBlur stdDeviation="2"/>
<feComposite in2="hardAlpha" operator="arithmetic" k2="-1" k3="1"/>
<feColorMatrix type="matrix" values="0 0 0 0 0 0 0 0 0 0 0 0 0 0 0 0 0 0 0.4 0"/>
<feBlend mode="normal" in2="shape" result="effect1_innerShadow_0_1"/>
</filter>
<filter id="filter1_d_0_1" x="30.9117" y="17.48" width="118.872" height="35.04" filterUnits="userSpaceOnUse" color-interpolation-filters="sRGB">
<feFlood flood-opacity="0" result="BackgroundImageFix"/>
<feColorMatrix in="SourceAlpha" type="matrix" values="0 0 0 0 0 0 0 0 0 0 0 0 0 0 0 0 0 0 127 0" result="hardAlpha"/>
<feOffset dy="4"/>
<feGaussianBlur stdDeviation="2"/>
<feComposite in2="hardAlpha" operator="out"/>
<feColorMatrix type="matrix" values="0 0 0 0 0 0 0 0 0 0 0 0 0 0 0 0 0 0 0.25 0"/>
<feBlend mode="normal" in2="BackgroundImageFix" result="effect1_dropShadow_0_1"/>
<feBlend mode="normal" in="SourceGraphic" in2="effect1_dropShadow_0_1" result="shape"/>
</filter>
</defs>
</svg>
